<svg xmlns="http://www.w3.org/2000/svg" version="1.1" xmlns:xlink="http://www.w3.org/1999/xlink" xmlns:svgjs="http://svgjs.dev/svgjs" width="1500" height="1500" viewBox="0 0 1500 1500"><rect width="1500" height="1500" fill="#636365"></rect><g transform="matrix(0.3698224852071006,0,0,0.3698224852071006,472.751001923935,250.40485829959528)"><svg viewBox="0 0 137 247" data-background-color="#636365" preserveAspectRatio="xMidYMid meet" height="2704" width="1500" xmlns="http://www.w3.org/2000/svg" xmlns:xlink="http://www.w3.org/1999/xlink"><g id="tight-bounds" transform="matrix(1,0,0,1,-0.029108773811913125,-0.09999999999999432)"><svg viewBox="0 0 137.05821754762385 247.2" height="247.2" width="137.05821754762385"><g><svg viewBox="0 0 391.4564825781818 706.0360496786877" height="247.2" width="137.05821754762385"><g><rect width="391.4564825781818" height="22.154981908537728" x="0" y="295.6561117379314" fill="#ffffff" opacity="1" stroke-width="0" stroke="transparent" fill-opacity="1" class="rect-qz-0" data-fill-palette-color="secondary" rx="1%" id="qz-0" data-palette-color="#ffffff"></rect></g><g transform="matrix(1,0,0,1,0.973772344721823,375.8084284855731)"><svg viewBox="0 0 389.50893788873816 330.2276211931146" height="330.2276211931146" width="389.50893788873816"><g id="textblocktransform"><svg viewBox="0 0 389.50893788873816 330.2276211931146" height="330.2276211931146" width="389.50893788873816" id="textblock"><g><svg viewBox="0 0 389.50893788873816 245.672304" height="245.672304" width="389.50893788873816"><g transform="matrix(1,0,0,1,0,0)"><svg width="389.50893788873816" viewBox="0.49 -35.5 57.05 35.99" height="245.672304" data-palette-color="#f7f7f7"><g class="wordmark-text-0" data-fill-palette-color="primary" id="text-0"><path d="M19.46 0L17.14-8.15 6.05-8.15 3.76 0 0.49 0 10.74-35.01 12.4-35.01 22.71 0 19.46 0ZM11.5-27.29L6.91-11.16 16.31-11.16 11.69-27.29 11.6-28.59 11.5-27.29ZM30.34 0L27.19 0 27.19-35.01 30.34-35.01 30.34 0ZM57.54-9.16L57.54-8.11Q57.54-6.32 56.82-4.76 56.1-3.2 54.89-2.03 53.68-0.85 52.08-0.18 50.48 0.49 48.7 0.49L48.7 0.49 46.19 0.49Q44.4 0.49 42.81-0.18 41.21-0.85 40-2.03 38.79-3.2 38.07-4.76 37.35-6.32 37.35-8.11L37.35-8.11 37.35-9.5 40.5-10.01 40.5-8.11Q40.5-6.93 40.97-5.92 41.45-4.91 42.26-4.14 43.06-3.37 44.12-2.93 45.19-2.49 46.36-2.49L46.36-2.49 48.55-2.49Q49.73-2.49 50.78-2.93 51.83-3.37 52.63-4.14 53.44-4.91 53.91-5.92 54.39-6.93 54.39-8.11L54.39-8.11 54.39-9.16Q54.39-10.96 53.68-12.16 52.97-13.35 51.8-14.2 50.63-15.04 49.15-15.63 47.68-16.21 46.11-16.8 44.55-17.38 43.07-18.09 41.6-18.8 40.42-19.86 39.25-20.92 38.54-22.46 37.84-24 37.84-26.25L37.84-26.25 37.84-26.9Q37.84-28.69 38.51-30.25 39.18-31.81 40.35-32.98 41.52-34.16 43.1-34.83 44.67-35.5 46.45-35.5L46.45-35.5 48.7-35.5Q50.48-35.5 52.05-34.83 53.61-34.16 54.78-32.98 55.95-31.81 56.62-30.25 57.29-28.69 57.29-26.9L57.29-26.9 57.29-26 54.15-25.49 54.15-26.9Q54.15-28.08 53.71-29.09 53.27-30.1 52.51-30.86 51.75-31.62 50.74-32.06 49.73-32.5 48.55-32.5L48.55-32.5 46.6-32.5Q45.43-32.5 44.42-32.06 43.4-31.62 42.63-30.86 41.87-30.1 41.43-29.09 40.99-28.08 40.99-26.9L40.99-26.9 40.99-26.25Q40.99-24.56 41.69-23.41 42.4-22.27 43.57-21.45 44.75-20.63 46.22-20.03 47.7-19.43 49.26-18.81 50.83-18.19 52.3-17.44 53.78-16.7 54.95-15.61 56.12-14.53 56.83-12.96 57.54-11.4 57.54-9.16L57.54-9.16Z" fill="#f7f7f7" data-fill-palette-color="primary"></path></g></svg></g></svg></g><g transform="matrix(1,0,0,1,0,303.669638839104)"><svg viewBox="0 0 389.50893788873816 26.557982354010594" height="26.557982354010594" width="389.50893788873816"><g transform="matrix(1,0,0,1,0,0)"><svg width="389.50893788873816" viewBox="-0.7 -41.25 797.85 54.4" height="26.557982354010594" data-palette-color="#ffffff"><path d="M10.55-14.65L6.1-2.2 10.15-1.7Q10.35-0.95 10.15 0.15L10.15 0.15Q7 0 4.85 0L4.85 0Q3.65 0-0.55 0.1L-0.55 0.1Q-0.85-0.8-0.55-1.7L-0.55-1.7 2.75-2.3Q3.55-3.5 4.75-6.75L4.75-6.75 17.65-41.25 19.4-41.25 33.9-2.2 37.95-1.7Q38.15-0.95 37.95 0.15L37.95 0.15Q34.8 0 30.9 0L30.9 0Q28 0 23.8 0.1L23.8 0.1Q23.5-0.8 23.8-1.7L23.8-1.7 27.95-2.3 23.55-14.65 10.55-14.65ZM17.2-33.7L17.2-33.7 17.15-33.7Q16.55-31.35 15.2-27.55L15.2-27.55 11.45-17.15 22.65-17.15 19-27.55Q17.95-30.6 17.2-33.7ZM59.3-8.7L59.3-17.85Q59.3-21.7 58.28-23.25 57.25-24.8 54.85-24.8L54.85-24.8Q51.15-24.8 47.4-19.25L47.4-19.25 47.4-2.55 51.45-1.8Q51.65-1 51.45 0.2L51.45 0.2Q48.3 0.05 45 0.05L45 0.05Q42.7 0.05 38.5 0.15L38.5 0.15Q38.2-0.8 38.5-1.8L38.5-1.8 42.45-2.35Q42.65-5.1 42.65-8.7L42.65-8.7 42.65-22.4Q42.65-23.4 42.5-24.25L42.5-24.25 38.55-24.75Q38.35-25.5 38.55-26.65L38.55-26.65Q42-26.9 47.15-27.7L47.15-27.7Q47.6-27.2 47.65-26.7L47.65-26.7Q47.4-25.4 47.4-22.25L47.4-22.25Q51.35-27.7 56.3-27.7L56.3-27.7Q64.05-27.7 64.05-20.35L64.05-20.35 64.05-2.55 68.1-1.8Q68.3-1 68.1 0.2L68.1 0.2Q64.95 0.05 61.65 0.05L61.65 0.05Q59.35 0.05 55.15 0.15L55.15 0.15Q54.85-0.8 55.15-1.8L55.15-1.8 59.1-2.35Q59.3-5.1 59.3-8.7L59.3-8.7ZM71-13.3L71-13.3Q71-16.3 71.88-18.93 72.75-21.55 74.4-23.5 76.05-25.45 78.38-26.58 80.7-27.7 83.6-27.7L83.6-27.7Q86.45-27.7 88.8-26.58 91.15-25.45 92.83-23.5 94.5-21.55 95.4-18.93 96.3-16.3 96.3-13.3L96.3-13.3Q96.3-10.2 95.38-7.6 94.45-5 92.78-3.08 91.1-1.15 88.75-0.08 86.4 1 83.6 1L83.6 1Q80.65 1 78.33-0.05 76-1.1 74.38-3 72.75-4.9 71.88-7.53 71-10.15 71-13.3ZM78.3-22.5L78.3-22.5Q76.15-19.45 76.15-13.3L76.15-13.3Q76.15-10.25 76.73-7.95 77.3-5.65 78.3-4.13 79.3-2.6 80.65-1.85 82-1.1 83.6-1.1L83.6-1.1Q85.15-1.1 86.55-1.85 87.95-2.6 88.95-4.13 89.95-5.65 90.55-7.95 91.15-10.25 91.15-13.3L91.15-13.3Q91.15-16.35 90.55-18.68 89.95-21 88.93-22.53 87.9-24.05 86.53-24.83 85.15-25.6 83.6-25.6L83.6-25.6Q80.5-25.6 78.3-22.5ZM120.75-8.7L120.75-17.85Q120.75-21.7 119.73-23.25 118.7-24.8 116.3-24.8L116.3-24.8Q112.6-24.8 108.85-19.25L108.85-19.25 108.85-2.55 112.9-1.8Q113.1-1 112.9 0.2L112.9 0.2Q109.75 0.05 106.45 0.05L106.45 0.05Q104.15 0.05 99.95 0.15L99.95 0.15Q99.65-0.8 99.95-1.8L99.95-1.8 103.9-2.35Q104.1-5.1 104.1-8.7L104.1-8.7 104.1-22.4Q104.1-23.4 103.95-24.25L103.95-24.25 100-24.75Q99.8-25.5 100-26.65L100-26.65Q103.45-26.9 108.6-27.7L108.6-27.7Q109.05-27.2 109.1-26.7L109.1-26.7Q108.85-25.4 108.85-22.25L108.85-22.25Q112.8-27.7 117.75-27.7L117.75-27.7Q125.5-27.7 125.5-20.35L125.5-20.35 125.5-2.55 129.55-1.8Q129.75-1 129.55 0.2L129.55 0.2Q126.4 0.05 123.1 0.05L123.1 0.05Q120.8 0.05 116.6 0.15L116.6 0.15Q116.3-0.8 116.6-1.8L116.6-1.8 120.55-2.35Q120.75-5.1 120.75-8.7L120.75-8.7ZM140.05 7.4L140.05 7.4 143.25-0.15 133.55-24.05 129.65-24.85Q129.4-25.85 129.65-26.85L129.65-26.85Q132.4-26.65 136.35-26.65L136.35-26.65Q139.9-26.65 143.1-26.8L143.1-26.8Q143.4-25.8 143.1-24.85L143.1-24.85 138.8-24.15 143.55-12.9Q144.55-10.45 145.65-6.05L145.65-6.05 145.75-6.05Q146.6-9.05 148.1-12.65L148.1-12.65 152.45-24.3 148.55-24.85Q148.35-25.65 148.55-26.85L148.55-26.85Q151.3-26.65 153.9-26.65L153.9-26.65Q156.1-26.65 159.35-26.8L159.35-26.8Q159.65-25.8 159.35-24.85L159.35-24.85 155.4-24.3 142.2 8Q141.15 10.5 139.85 11.75 138.55 13 136.4 13L136.4 13Q134.7 13 133.78 12.58 132.85 12.15 131.9 10.95L131.9 10.95Q132.2 8.2 134.75 6.55L134.75 6.55Q136.8 8.85 138.25 8.85L138.25 8.85Q139.5 8.85 140.05 7.4ZM197.85-8.7L197.85-17.85Q197.85-24.8 193.4-24.8L193.4-24.8Q189.6-24.8 186.2-19.55L186.2-19.55 186.2-2.55 190.25-1.8Q190.45-1 190.25 0.2L190.25 0.2Q187.1 0.05 183.85 0.05L183.85 0.05Q181.55 0.05 177.35 0.15L177.35 0.15Q177.05-0.8 177.35-1.8L177.35-1.8 181.3-2.35Q181.5-5.1 181.5-8.7L181.5-8.7 181.5-17.85Q181.5-24.8 177.05-24.8L177.05-24.8Q174.8-24.8 173.1-23.43 171.4-22.05 169.6-19.15L169.6-19.15 169.6-2.55 173.65-1.8Q173.85-1 173.65 0.2L173.65 0.2Q170.5 0.05 167.25 0.05L167.25 0.05Q164.95 0.05 160.75 0.15L160.75 0.15Q160.45-0.8 160.75-1.8L160.75-1.8 164.7-2.35Q164.9-5.1 164.9-8.7L164.9-8.7 164.9-22.4Q164.9-23.4 164.75-24.25L164.75-24.25 160.8-24.75Q160.6-25.5 160.8-26.65L160.8-26.65Q164.15-26.9 169.35-27.7L169.35-27.7Q169.8-27.2 169.85-26.7L169.85-26.7Q169.6-25.4 169.6-22.25L169.6-22.25Q173.55-27.7 178.5-27.7L178.5-27.7Q181.1-27.7 183.25-26.38 185.4-25.05 186-22.3L186-22.3Q190-27.7 194.85-27.7L194.85-27.7Q197.9-27.7 200.23-25.9 202.55-24.1 202.55-20.35L202.55-20.35 202.55-2.55 206.6-1.8Q206.8-1 206.6 0.2L206.6 0.2Q203.45 0.05 200.2 0.05L200.2 0.05Q197.9 0.05 193.7 0.15L193.7 0.15Q193.4-0.8 193.7-1.8L193.7-1.8 197.65-2.35Q197.85-5.1 197.85-8.7L197.85-8.7ZM209.45-13.3L209.45-13.3Q209.45-16.3 210.33-18.93 211.2-21.55 212.85-23.5 214.5-25.45 216.83-26.58 219.15-27.7 222.05-27.7L222.05-27.7Q224.9-27.7 227.25-26.58 229.6-25.45 231.28-23.5 232.95-21.55 233.85-18.93 234.75-16.3 234.75-13.3L234.75-13.3Q234.75-10.2 233.83-7.6 232.9-5 231.23-3.08 229.55-1.15 227.2-0.08 224.85 1 222.05 1L222.05 1Q219.1 1 216.78-0.05 214.45-1.1 212.83-3 211.2-4.9 210.33-7.53 209.45-10.15 209.45-13.3ZM216.75-22.5L216.75-22.5Q214.6-19.45 214.6-13.3L214.6-13.3Q214.6-10.25 215.18-7.95 215.75-5.65 216.75-4.13 217.75-2.6 219.1-1.85 220.45-1.1 222.05-1.1L222.05-1.1Q223.6-1.1 225-1.85 226.4-2.6 227.4-4.13 228.4-5.65 229-7.95 229.6-10.25 229.6-13.3L229.6-13.3Q229.6-16.35 229-18.68 228.4-21 227.38-22.53 226.35-24.05 224.98-24.83 223.6-25.6 222.05-25.6L222.05-25.6Q218.95-25.6 216.75-22.5ZM262.7-26.7L262.7-26.7 262.7-7.1Q262.7-3.75 262.85-2.4L262.85-2.4 266.8-1.9Q266.95-1.1 266.8 0L266.8 0Q263.15 0.15 259.2 0.7L259.2 0.7Q258.85 0.35 258.7-0.25L258.7-0.25 258.45-4.7Q256.35-2 254.13-0.5 251.9 1 248.9 1L248.9 1Q245.85 1 243.78-0.55 241.7-2.1 241.7-5.85L241.7-5.85 241.7-16.95Q241.7-22.65 241.55-24.25L241.55-24.25 237.6-24.75Q237.4-25.5 237.6-26.65L237.6-26.65Q241.05-26.9 246.2-27.7L246.2-27.7Q246.65-27.2 246.7-26.7L246.7-26.7Q246.45-25.4 246.45-8.35L246.45-8.35Q246.45-4.85 247.28-3.38 248.1-1.9 250.35-1.9L250.35-1.9Q254.55-1.9 257.95-6.9L257.95-6.9 257.95-17Q257.95-22.65 257.8-24.25L257.8-24.25 253.85-24.75Q253.65-25.5 253.85-26.65L253.85-26.65Q256.85-26.85 262.2-27.7L262.2-27.7Q262.65-27.2 262.7-26.7ZM278.75-1.2L278.75-1.2Q281.45-1.2 282.75-2.45 284.05-3.7 284.05-5.35L284.05-5.35Q284.05-6.3 283.75-7.1 283.45-7.9 282.78-8.65 282.1-9.4 281-10.13 279.9-10.85 278.25-11.7L278.25-11.7Q276.2-12.75 274.73-13.7 273.25-14.65 272.3-15.7 271.35-16.75 270.88-17.95 270.4-19.15 270.4-20.65L270.4-20.65Q270.4-22.45 271.05-23.78 271.7-25.1 272.88-25.98 274.05-26.85 275.65-27.28 277.25-27.7 279.2-27.7L279.2-27.7Q283.1-27.7 286.8-25.8L286.8-25.8 286.8-19.4 284.45-19.4 283.35-24.8Q281.15-25.85 278.7-25.85L278.7-25.85Q274.6-25.85 274.6-22.5L274.6-22.5Q274.6-20.7 275.95-19.2 277.3-17.7 280.3-16.2L280.3-16.2Q282.35-15.15 283.9-14.2 285.45-13.25 286.48-12.2 287.5-11.15 288.03-9.93 288.55-8.7 288.55-7.15L288.55-7.15Q288.55-5.4 287.8-3.9 287.05-2.4 285.7-1.33 284.35-0.25 282.45 0.38 280.55 1 278.25 1L278.25 1Q273.8 1 269.9-0.9L269.9-0.9 269.9-7.3 272.25-7.3 273.35-2.35Q275.9-1.2 278.75-1.2ZM314.95-31.65L314.95-31.65 314.95-2.2 319-1.7Q319.2-0.95 319 0.15L319 0.15Q315.85 0 312.15 0L312.15 0Q309.45 0 305.25 0.1L305.25 0.1Q304.95-0.8 305.25-1.7L305.25-1.7 309.4-2.3Q309.6-4.2 309.6-8.15L309.6-8.15 309.6-37.6 305.55-38.1Q305.35-38.85 305.55-39.95L305.55-39.95Q308.3-39.75 312.4-39.75L312.4-39.75Q316.05-39.75 319.3-39.9L319.3-39.9Q319.6-39 319.3-38.1L319.3-38.1 315.15-37.5Q314.95-35.6 314.95-31.65ZM343.95-8.7L343.95-17.85Q343.95-21.7 342.93-23.25 341.9-24.8 339.5-24.8L339.5-24.8Q335.8-24.8 332.05-19.25L332.05-19.25 332.05-2.55 336.1-1.8Q336.3-1 336.1 0.2L336.1 0.2Q332.95 0.05 329.65 0.05L329.65 0.05Q327.35 0.05 323.15 0.15L323.15 0.15Q322.85-0.8 323.15-1.8L323.15-1.8 327.1-2.35Q327.3-5.1 327.3-8.7L327.3-8.7 327.3-22.4Q327.3-23.4 327.15-24.25L327.15-24.25 323.2-24.75Q323-25.5 323.2-26.65L323.2-26.65Q326.65-26.9 331.8-27.7L331.8-27.7Q332.25-27.2 332.3-26.7L332.3-26.7Q332.05-25.4 332.05-22.25L332.05-22.25Q336-27.7 340.95-27.7L340.95-27.7Q348.7-27.7 348.7-20.35L348.7-20.35 348.7-2.55 352.75-1.8Q352.95-1 352.75 0.2L352.75 0.2Q349.6 0.05 346.3 0.05L346.3 0.05Q344 0.05 339.8 0.15L339.8 0.15Q339.5-0.8 339.8-1.8L339.8-1.8 343.75-2.35Q343.95-5.1 343.95-8.7L343.95-8.7ZM377.75-24.3L367.4 2.2 366.35 2.2 356-24.25 352.85-24.85Q352.65-25.65 352.85-26.85L352.85-26.85Q355.6-26.65 358.8-26.65L358.8-26.65Q361.65-26.65 364.85-26.8L364.85-26.8Q365.15-25.8 364.85-24.85L364.85-24.85 361.7-24.25 365.75-12.75Q367.5-7.75 368.05-5.5L368.05-5.5 368.15-5.5Q369.35-9.8 370.5-12.5L370.5-12.5 374.8-24.45 370.9-24.85Q370.7-25.65 370.9-26.85L370.9-26.85Q373.65-26.65 376.15-26.65L376.15-26.65Q378.25-26.65 381.5-26.8L381.5-26.8Q381.8-25.8 381.5-24.85L381.5-24.85 377.75-24.3ZM403.75-14.1L403.75-14.1 388.05-14.1Q387.6-1.35 395.7-1.35L395.7-1.35Q399.15-1.35 402.75-4.4L402.75-4.4Q403.5-3.95 403.9-2.85L403.9-2.85Q400.45 1 395.15 1L395.15 1Q382.95 1 382.95-13.35L382.95-13.35Q382.95-20.15 386.55-23.93 390.15-27.7 394.95-27.7L394.95-27.7Q400.2-27.7 402.5-24.05 404.8-20.4 404.8-14.55L404.8-14.55Q404.3-14.15 403.75-14.1ZM394.85-25.7L394.85-25.7Q392.25-25.7 390.43-23 388.6-20.3 388.2-16.1L388.2-16.1 394.4-16.1Q398.1-16.1 399.7-16.55L399.7-16.55Q399.7-20.65 398.45-23.18 397.2-25.7 394.85-25.7ZM418.05-1.2L418.05-1.2Q420.75-1.2 422.05-2.45 423.35-3.7 423.35-5.35L423.35-5.35Q423.35-6.3 423.05-7.1 422.75-7.9 422.08-8.65 421.4-9.4 420.3-10.13 419.2-10.85 417.55-11.7L417.55-11.7Q415.5-12.75 414.03-13.7 412.55-14.65 411.6-15.7 410.65-16.75 410.18-17.95 409.7-19.15 409.7-20.65L409.7-20.65Q409.7-22.45 410.35-23.78 411-25.1 412.18-25.98 413.35-26.85 414.95-27.28 416.55-27.7 418.5-27.7L418.5-27.7Q422.4-27.7 426.1-25.8L426.1-25.8 426.1-19.4 423.75-19.4 422.65-24.8Q420.45-25.85 418-25.85L418-25.85Q413.9-25.85 413.9-22.5L413.9-22.5Q413.9-20.7 415.25-19.2 416.6-17.7 419.6-16.2L419.6-16.2Q421.65-15.15 423.2-14.2 424.75-13.25 425.78-12.2 426.8-11.15 427.33-9.93 427.85-8.7 427.85-7.15L427.85-7.15Q427.85-5.4 427.1-3.9 426.35-2.4 425-1.33 423.65-0.25 421.75 0.38 419.85 1 417.55 1L417.55 1Q413.1 1 409.2-0.9L409.2-0.9 409.2-7.3 411.55-7.3 412.65-2.35Q415.2-1.2 418.05-1.2ZM439.45-32.7L439.45-32.7 439.45-25.55 446.5-25.55Q446.6-24.95 446.6-24.65L446.6-24.65Q446.6-24.2 446.5-23.6L446.5-23.6 439.45-22.55 439.45-8.8Q439.45-5.1 440.13-3.58 440.8-2.05 442.25-2.05L442.25-2.05Q443.55-2.05 446.3-3.1L446.3-3.1Q446.8-2.65 447-1.4L447-1.4Q445.5-0.5 444.73-0.08 443.95 0.35 442.78 0.68 441.6 1 440.3 1L440.3 1Q437.8 1 436.23-0.93 434.65-2.85 434.65-6.8L434.65-6.8 434.65-23.15 431.15-23.6Q431.05-24.1 431.05-24.45L431.05-24.45Q431.05-24.85 431.15-25.55L431.15-25.55Q432.55-25.8 433.58-26.43 434.6-27.05 435.3-28.18 436-29.3 436.38-30.18 436.75-31.05 437.3-32.7L437.3-32.7Q437.75-32.85 438.4-32.85L438.4-32.85Q439-32.85 439.45-32.7ZM458.15-18.6L458.15-18.6 458.15-2.55 462.2-1.8Q462.25-1.55 462.28-1.35 462.3-1.15 462.3-0.9L462.3-0.9Q462.3-0.65 462.28-0.38 462.25-0.1 462.2 0.2L462.2 0.2Q459.05 0.05 455.75 0.05L455.75 0.05Q454.6 0.05 452.98 0.08 451.35 0.1 449.25 0.15L449.25 0.15Q449.1-0.3 449.1-0.8L449.1-0.8Q449.1-1.25 449.25-1.8L449.25-1.8 453.2-2.35Q453.3-3.75 453.35-5.33 453.4-6.9 453.4-8.7L453.4-8.7 453.4-19.35Q453.4-22.65 453.25-24.25L453.25-24.25 449.3-24.75Q449.2-25 449.2-25.6L449.2-25.6Q449.2-25.85 449.2-26.1 449.2-26.35 449.3-26.65L449.3-26.65Q452.7-26.85 457.9-27.7L457.9-27.7Q458.35-27.2 458.4-26.7L458.4-26.7Q458.15-25.3 458.15-18.6ZM450.85-36.45L450.85-36.45Q450.75-36.7 450.75-36.98 450.75-37.25 450.75-37.5L450.75-37.5Q450.75-38.85 451.88-39.68 453-40.5 454.65-40.5L454.65-40.5Q456.2-40.5 457.18-39.58 458.15-38.65 458.15-37.05L458.15-37.05Q458.15-35.75 457.03-34.95 455.9-34.15 454.15-34.15L454.15-34.15Q452.95-34.15 452.03-34.75 451.1-35.35 450.85-36.45ZM469.25 0.55L469.25 0.55Q469.7 0.75 470 1.4L470 1.4Q468.35 2.75 468.35 5.45L468.35 5.45Q468.35 7.85 470.55 9.3 472.75 10.75 476.25 10.75L476.25 10.75Q479.85 10.75 482.25 9.43 484.65 8.1 484.65 5.7L484.65 5.7Q484.65 3.1 483.7 1.88 482.75 0.65 479.9 0.4L479.9 0.4 470.55-0.45Q469-0.65 467.98-2.08 466.95-3.5 466.95-4.85L466.95-4.85 470.3-10.4Q468-11.7 466.83-13.85 465.65-16 465.65-18.25L465.65-18.25Q465.65-22.5 468.8-25.1 471.95-27.7 476.05-27.7L476.05-27.7Q480-27.7 483-25.6L483-25.6Q483.25-32.45 488.1-32.7L488.1-32.7Q489.4-32.4 489.4-30.55L489.4-30.55Q489.4-29.55 489.2-28.35L489.2-28.35Q487.25-28.2 486-27.08 484.75-25.95 484.2-24.5L484.2-24.5Q486.7-22 486.7-18.25L486.7-18.25Q486.7-14.3 483.5-11.68 480.3-9.05 476.05-9.05L476.05-9.05Q473.8-9.05 472-9.65L472-9.65 470.3-5.2 482.75-3.95Q485.65-3.6 487.18-1.83 488.7-0.05 488.7 2.8L488.7 2.8Q488.7 7.8 485.1 10.48 481.5 13.15 475.35 13.15L475.35 13.15Q470.25 13.15 467.4 11.3 464.55 9.45 464.55 6.35L464.55 6.35Q464.55 4.25 465.9 2.63 467.25 1 469.25 0.55ZM470.15-18.25L470.15-18.25Q470.15-15.35 471.78-13.3 473.4-11.25 476.1-11.25L476.1-11.25Q478.75-11.25 480.45-13.28 482.15-15.3 482.15-18.25L482.15-18.25Q482.15-21.45 480.48-23.58 478.8-25.7 476.1-25.7L476.1-25.7Q473.55-25.7 471.85-23.55 470.15-21.4 470.15-18.25ZM496.2-6.65L496.2-6.65Q496.2-4.05 497.15-2.98 498.1-1.9 500.15-1.9L500.15-1.9Q501.65-1.9 503.48-2.83 505.3-3.75 506.85-5.5L506.85-5.5 506.85-13.3Q501.7-13 498.95-11.48 496.2-9.95 496.2-6.65ZM506.85-15.1L506.85-15.1 506.85-17.65Q506.85-21.9 505.88-23.83 504.9-25.75 502.65-25.75L502.65-25.75Q500.35-25.75 498.95-24.28 497.55-22.8 497.05-19.25L497.05-19.25Q495.45-18.9 494.7-18.9L494.7-18.9Q492.75-18.9 492.4-20.3L492.4-20.3Q492.4-23.7 495.35-25.7 498.3-27.7 502.7-27.7L502.7-27.7Q507.55-27.7 509.58-25.73 511.6-23.75 511.6-18.65L511.6-18.65 511.6-4.55Q511.6-3.3 511.75-2.4L511.75-2.4 515.7-1.9Q515.9-1.15 515.7 0L515.7 0Q512.15 0.15 508.15 0.7L508.15 0.7Q507.75 0.3 507.65-0.3L507.65-0.3 507.4-3.75Q503.25 1 498.15 1L498.15 1Q495 1 493.23-0.8 491.45-2.6 491.45-5.65L491.45-5.65Q491.45-10.25 495.63-12.6 499.8-14.95 506.85-15.1ZM525.65-32.7L525.65-32.7 525.65-25.55 532.7-25.55Q532.8-24.95 532.8-24.65L532.8-24.65Q532.8-24.2 532.7-23.6L532.7-23.6 525.65-22.55 525.65-8.8Q525.65-5.1 526.33-3.58 527-2.05 528.45-2.05L528.45-2.05Q529.75-2.05 532.5-3.1L532.5-3.1Q533-2.65 533.2-1.4L533.2-1.4Q531.7-0.5 530.93-0.08 530.15 0.35 528.98 0.68 527.8 1 526.5 1L526.5 1Q524 1 522.43-0.93 520.85-2.85 520.85-6.8L520.85-6.8 520.85-23.15 517.35-23.6Q517.25-24.1 517.25-24.45L517.25-24.45Q517.25-24.85 517.35-25.55L517.35-25.55Q518.75-25.8 519.78-26.43 520.8-27.05 521.5-28.18 522.2-29.3 522.58-30.18 522.95-31.05 523.5-32.7L523.5-32.7Q523.95-32.85 524.6-32.85L524.6-32.85Q525.2-32.85 525.65-32.7ZM544.35-18.6L544.35-18.6 544.35-2.55 548.4-1.8Q548.45-1.55 548.48-1.35 548.5-1.15 548.5-0.9L548.5-0.9Q548.5-0.65 548.48-0.38 548.45-0.1 548.4 0.2L548.4 0.2Q545.25 0.05 541.95 0.05L541.95 0.05Q540.8 0.05 539.18 0.08 537.55 0.1 535.45 0.15L535.45 0.15Q535.3-0.3 535.3-0.8L535.3-0.8Q535.3-1.25 535.45-1.8L535.45-1.8 539.4-2.35Q539.5-3.75 539.55-5.33 539.6-6.9 539.6-8.7L539.6-8.7 539.6-19.35Q539.6-22.65 539.45-24.25L539.45-24.25 535.5-24.75Q535.4-25 535.4-25.6L535.4-25.6Q535.4-25.85 535.4-26.1 535.4-26.35 535.5-26.65L535.5-26.65Q538.9-26.85 544.1-27.7L544.1-27.7Q544.55-27.2 544.6-26.7L544.6-26.7Q544.35-25.3 544.35-18.6ZM537.05-36.45L537.05-36.45Q536.95-36.7 536.95-36.98 536.95-37.25 536.95-37.5L536.95-37.5Q536.95-38.85 538.08-39.68 539.2-40.5 540.85-40.5L540.85-40.5Q542.4-40.5 543.38-39.58 544.35-38.65 544.35-37.05L544.35-37.05Q544.35-35.75 543.23-34.95 542.1-34.15 540.35-34.15L540.35-34.15Q539.15-34.15 538.23-34.75 537.3-35.35 537.05-36.45ZM551.6-13.3L551.6-13.3Q551.6-16.3 552.48-18.93 553.35-21.55 555-23.5 556.65-25.45 558.98-26.58 561.3-27.7 564.2-27.7L564.2-27.7Q567.05-27.7 569.4-26.58 571.75-25.45 573.43-23.5 575.1-21.55 576-18.93 576.9-16.3 576.9-13.3L576.9-13.3Q576.9-10.2 575.98-7.6 575.05-5 573.38-3.08 571.7-1.15 569.35-0.08 567 1 564.2 1L564.2 1Q561.25 1 558.93-0.05 556.6-1.1 554.98-3 553.35-4.9 552.48-7.53 551.6-10.15 551.6-13.3ZM558.9-22.5L558.9-22.5Q556.75-19.45 556.75-13.3L556.75-13.3Q556.75-10.25 557.33-7.95 557.9-5.65 558.9-4.13 559.9-2.6 561.25-1.85 562.6-1.1 564.2-1.1L564.2-1.1Q565.75-1.1 567.15-1.85 568.55-2.6 569.55-4.13 570.55-5.65 571.15-7.95 571.75-10.25 571.75-13.3L571.75-13.3Q571.75-16.35 571.15-18.68 570.55-21 569.53-22.53 568.5-24.05 567.13-24.83 565.75-25.6 564.2-25.6L564.2-25.6Q561.1-25.6 558.9-22.5ZM601.35-8.7L601.35-17.85Q601.35-21.7 600.33-23.25 599.3-24.8 596.9-24.8L596.9-24.8Q593.2-24.8 589.45-19.25L589.45-19.25 589.45-2.55 593.5-1.8Q593.7-1 593.5 0.2L593.5 0.2Q590.35 0.05 587.05 0.05L587.05 0.05Q584.75 0.05 580.55 0.15L580.55 0.15Q580.25-0.8 580.55-1.8L580.55-1.8 584.5-2.35Q584.7-5.1 584.7-8.7L584.7-8.7 584.7-22.4Q584.7-23.4 584.55-24.25L584.55-24.25 580.6-24.75Q580.4-25.5 580.6-26.65L580.6-26.65Q584.05-26.9 589.2-27.7L589.2-27.7Q589.65-27.2 589.7-26.7L589.7-26.7Q589.45-25.4 589.45-22.25L589.45-22.25Q593.4-27.7 598.35-27.7L598.35-27.7Q606.1-27.7 606.1-20.35L606.1-20.35 606.1-2.55 610.15-1.8Q610.35-1 610.15 0.2L610.15 0.2Q607 0.05 603.7 0.05L603.7 0.05Q601.4 0.05 597.2 0.15L597.2 0.15Q596.9-0.8 597.2-1.8L597.2-1.8 601.15-2.35Q601.35-5.1 601.35-8.7L601.35-8.7ZM629.75-11.55L631.35-3.45Q634.25-1.45 639.5-1.45L639.5-1.45Q643.05-1.45 644.83-3.5 646.6-5.55 646.6-8.4L646.6-8.4Q646.6-9.9 646.35-10.93 646.1-11.95 645.28-13.25 644.45-14.55 642.65-15.85 640.85-17.15 637.95-18.6L637.95-18.6Q634.55-20.3 632.45-21.8 630.35-23.3 629.3-24.9 628.25-26.5 627.9-27.95 627.55-29.4 627.55-31.55L627.55-31.55Q627.55-35.95 631.08-38.38 634.6-40.8 639.4-40.8L639.4-40.8Q645.35-40.8 650.9-37.8L650.9-37.8 650.9-28.2Q649.2-27.9 648.05-28.2L648.05-28.2 646.45-36.85Q643.25-38.6 639.3-38.6L639.3-38.6Q636.65-38.6 634.83-37.02 633-35.45 633-32.6L633-32.6Q633-31 633.2-30.1 633.4-29.2 634.2-27.98 635-26.75 636.85-25.53 638.7-24.3 641.8-22.8L641.8-22.8Q652.5-17.6 652.5-10.4L652.5-10.4Q652.5-5.3 648.6-2.15 644.7 1 638.4 1L638.4 1Q632.15 1 626.9-1.95L626.9-1.95 626.9-11.55Q628.6-11.85 629.75-11.55L629.75-11.55ZM678.9-14.1L678.9-14.1 663.2-14.1Q662.75-1.35 670.85-1.35L670.85-1.35Q674.3-1.35 677.9-4.4L677.9-4.4Q678.65-3.95 679.05-2.85L679.05-2.85Q675.6 1 670.3 1L670.3 1Q658.1 1 658.1-13.35L658.1-13.35Q658.1-20.15 661.7-23.93 665.3-27.7 670.1-27.7L670.1-27.7Q675.35-27.7 677.65-24.05 679.95-20.4 679.95-14.55L679.95-14.55Q679.45-14.15 678.9-14.1ZM670-25.7L670-25.7Q667.4-25.7 665.58-23 663.75-20.3 663.35-16.1L663.35-16.1 669.55-16.1Q673.25-16.1 674.85-16.55L674.85-16.55Q674.85-20.65 673.6-23.18 672.35-25.7 670-25.7ZM692.75-26.7L692.75-26.7 692.65-21.55Q693.9-23.85 696.13-25.78 698.35-27.7 700.35-27.7L700.35-27.7Q701.9-27.7 703.1-27.35L703.1-27.35Q703.5-26.7 703.5-25.65L703.5-25.65Q703.5-24 702.8-22.35L702.8-22.35Q701-22.85 699.35-22.85L699.35-22.85Q695.25-22.85 692.6-18.85L692.6-18.85 692.5-10.1 692.5-2.55 698.05-1.8Q698.25-1 698.05 0.2L698.05 0.2Q694.9 0.05 690.85 0.05L690.85 0.05Q687.8 0.05 683.6 0.15L683.6 0.15Q683.3-0.8 683.6-1.8L683.6-1.8 687.55-2.35Q687.75-5.1 687.75-8.7L687.75-8.7 687.75-22.4Q687.75-23.4 687.6-24.25L687.6-24.25 683.65-24.75Q683.45-25.5 683.65-26.65L683.65-26.65Q687.1-26.9 692.25-27.7L692.25-27.7Q692.7-27.2 692.75-26.7ZM728.55-24.3L718.2 2.2 717.15 2.2 706.8-24.25 703.65-24.85Q703.45-25.65 703.65-26.85L703.65-26.85Q706.4-26.65 709.6-26.65L709.6-26.65Q712.45-26.65 715.65-26.8L715.65-26.8Q715.95-25.8 715.65-24.85L715.65-24.85 712.5-24.25 716.55-12.75Q718.3-7.75 718.85-5.5L718.85-5.5 718.95-5.5Q720.15-9.8 721.3-12.5L721.3-12.5 725.6-24.45 721.7-24.85Q721.5-25.65 721.7-26.85L721.7-26.85Q724.45-26.65 726.95-26.65L726.95-26.65Q729.05-26.65 732.3-26.8L732.3-26.8Q732.6-25.8 732.3-24.85L732.3-24.85 728.55-24.3ZM742.55-18.6L742.55-18.6 742.55-2.55 746.6-1.8Q746.65-1.55 746.67-1.35 746.7-1.15 746.7-0.9L746.7-0.9Q746.7-0.65 746.67-0.38 746.65-0.1 746.6 0.2L746.6 0.2Q743.45 0.05 740.15 0.05L740.15 0.05Q739 0.05 737.38 0.08 735.75 0.1 733.65 0.15L733.65 0.15Q733.5-0.3 733.5-0.8L733.5-0.8Q733.5-1.25 733.65-1.8L733.65-1.8 737.6-2.35Q737.7-3.75 737.75-5.33 737.8-6.9 737.8-8.7L737.8-8.7 737.8-19.35Q737.8-22.65 737.65-24.25L737.65-24.25 733.7-24.75Q733.6-25 733.6-25.6L733.6-25.6Q733.6-25.85 733.6-26.1 733.6-26.35 733.7-26.65L733.7-26.65Q737.1-26.85 742.3-27.7L742.3-27.7Q742.75-27.2 742.8-26.7L742.8-26.7Q742.55-25.3 742.55-18.6ZM735.25-36.45L735.25-36.45Q735.15-36.7 735.15-36.98 735.15-37.25 735.15-37.5L735.15-37.5Q735.15-38.85 736.27-39.68 737.4-40.5 739.05-40.5L739.05-40.5Q740.6-40.5 741.57-39.58 742.55-38.65 742.55-37.05L742.55-37.05Q742.55-35.75 741.42-34.95 740.3-34.15 738.55-34.15L738.55-34.15Q737.35-34.15 736.42-34.75 735.5-35.35 735.25-36.45ZM771.55-20.3L771.55-20.3Q770.5-19.2 766.6-19.25L766.6-19.25Q765.8-25.55 762.05-25.55L762.05-25.55Q759.1-25.55 757.05-22.15 755-18.75 755-13.2L755-13.2Q755-7.5 756.8-4.42 758.6-1.35 762.2-1.35L762.2-1.35Q766-1.35 769.65-4.45L769.65-4.45Q770.4-4 770.8-2.9L770.8-2.9Q767.15 1 761.65 1L761.65 1Q756.4 1 753.05-2.63 749.7-6.25 749.7-13.3L749.7-13.3Q749.7-20.05 753.42-23.88 757.15-27.7 761.95-27.7L761.95-27.7Q765.75-27.7 768.65-25.8 771.55-23.9 771.55-20.3ZM796.1-14.1L796.1-14.1 780.4-14.1Q779.95-1.35 788.05-1.35L788.05-1.35Q791.5-1.35 795.1-4.4L795.1-4.4Q795.85-3.95 796.25-2.85L796.25-2.85Q792.8 1 787.5 1L787.5 1Q775.3 1 775.3-13.35L775.3-13.35Q775.3-20.15 778.9-23.93 782.5-27.7 787.3-27.7L787.3-27.7Q792.55-27.7 794.85-24.05 797.15-20.4 797.15-14.55L797.15-14.55Q796.65-14.15 796.1-14.1ZM787.2-25.7L787.2-25.7Q784.6-25.7 782.77-23 780.95-20.3 780.55-16.1L780.55-16.1 786.75-16.1Q790.45-16.1 792.05-16.55L792.05-16.55Q792.05-20.65 790.8-23.18 789.55-25.7 787.2-25.7Z" opacity="1" transform="matrix(1,0,0,1,0,0)" fill="#ffffff" class="slogan-text-1" data-fill-palette-color="secondary" id="text-1"></path></svg></g></svg></g></svg></g></svg></g><g transform="matrix(1,0,0,1,75.3699794814708,0)"><svg viewBox="0 0 240.7165236152402 237.65877689882737" height="237.65877689882737" width="240.7165236152402"><g><svg xmlns="http://www.w3.org/2000/svg" xmlns:xlink="http://www.w3.org/1999/xlink" version="1.1" x="8" y="0" viewBox="7.4999999999999964 4.998777176176591 85.1 90.00122282382341" enable-background="new 0 0 100 100" xml:space="preserve" height="237.65877689882737" width="224.7165236152402" class="icon-icon-0" data-fill-palette-color="accent" id="icon-0"><g fill="#ffffff" data-fill-palette-color="accent"><path d="M48.1 52.1c17.4 0 37.5-4 39.3-7.6S65 36.1 65 36.1c-5.8 2.7-17 2.7-17 2.7s-11.2 0-17-2.7c0 0-24.1 4.9-22.3 8.5C10.6 48.1 30.2 52.1 48.1 52.1z" fill="#ffffff" data-fill-palette-color="accent"></path><path d="M63.1 29.2c0 0-3.4-19.4-5.9-23.2-2.5-3.8-6.3 4.5-10.2 4.5-3.9 0-4.8-5.3-8.3-5.5-3.6-0.2-7.1 24.2-7.1 24.2S50 33.4 63.1 29.2z" fill="#ffffff" data-fill-palette-color="accent"></path><path d="M31.5 53.3c0 0-1.6 7.4 8 7.6 0 0 3.7 0 5.6-3.3 0.6-1 1.5-1.6 2.7-1.6h0.4c1.1 0 2.1 0.6 2.7 1.6 1.9 3.3 5.6 3.3 5.6 3.3 9.6-0.2 8-7.6 8-7.6-4.4 1.5-11.3 1.4-13.7 1.3h0c-0.6 0-0.9 0-0.9 0 0 0 0 0 0 0l-3.8 0C46.2 54.5 36.9 55 31.5 53.3z" fill="#ffffff" data-fill-palette-color="accent"></path><path d="M27.7 53.3l-7.4-1.1-12.8 11c0.3 0 0.8 0 1.2 0 5.7 0 20.8 4.8 20.8 4.8l-8 6.9c6 1.2 24.9 11.3 24.9 11.3l1.8-6.6C33.1 68.5 27.7 53.3 27.7 53.3z" fill="#ffffff" data-fill-palette-color="accent"></path><path d="M92.6 62.9L77.1 52.1l-8.3 1.1c0.5 2.7-1.2 7.6-1.2 7.6C43.7 78.9 47.6 95 47.6 95 57.1 76.2 78 73.6 78 73.6l-9.5-4.5C74.7 65.2 92.6 62.9 92.6 62.9z" fill="#ffffff" data-fill-palette-color="accent"></path></g></svg></g></svg></g><g></g></svg></g><defs></defs></svg><rect width="137.05821754762385" height="247.2" fill="none" stroke="none" visibility="hidden"></rect></g></svg></g></svg>