<svg xmlns="http://www.w3.org/2000/svg" version="1.1" xmlns:xlink="http://www.w3.org/1999/xlink" xmlns:svgjs="http://svgjs.dev/svgjs" width="1500" height="500" viewBox="0 0 1500 500"><g transform="matrix(1,0,0,1,-0.9090909090909918,0.46586846757264766)"><svg viewBox="0 0 396 132" data-background-color="#636365" preserveAspectRatio="xMidYMid meet" height="500" width="1500" xmlns="http://www.w3.org/2000/svg" xmlns:xlink="http://www.w3.org/1999/xlink"><g id="tight-bounds" transform="matrix(1,0,0,1,0.2400000000000091,-0.12298927543918126)"><svg viewBox="0 0 395.52 132.2459785508784" height="132.2459785508784" width="395.52"><g><svg viewBox="0 0 799.796674134552 267.4198367027251" height="132.2459785508784" width="395.52"><g><rect width="22.292751110399998" height="248.43599999999995" x="327.2148639109905" y="9.491918351362571" fill="#ffffff" opacity="1" stroke-width="0" stroke="transparent" fill-opacity="1" class="rect-qz-0" data-fill-palette-color="secondary" rx="1%" id="qz-0" data-palette-color="#ffffff"></rect></g><g transform="matrix(1,0,0,1,407.86560222139053,10.109918351362552)"><svg viewBox="0 0 391.9310719131615 247.2" height="247.2" width="391.9310719131615"><g id="textblocktransform"><svg viewBox="0 0 391.9310719131615 247.2" height="247.2" width="391.9310719131615" id="textblock"><g><svg viewBox="0 0 391.9310719131615 247.2" height="247.2" width="391.9310719131615"><g transform="matrix(1,0,0,1,0,0)"><svg width="391.9310719131615" viewBox="0.49 -35.5 57.05 35.99" height="247.2" data-palette-color="#ffffff"><path d="M19.46 0L17.14-8.15 6.05-8.15 3.76 0 0.49 0 10.74-35.01 12.4-35.01 22.71 0 19.46 0ZM11.5-27.29L6.91-11.16 16.31-11.16 11.69-27.29 11.6-28.59 11.5-27.29ZM30.34 0L27.19 0 27.19-35.01 30.34-35.01 30.34 0ZM57.54-9.16L57.54-8.11Q57.54-6.32 56.82-4.76 56.1-3.2 54.89-2.03 53.68-0.85 52.08-0.18 50.48 0.49 48.7 0.49L48.7 0.49 46.19 0.49Q44.4 0.49 42.81-0.18 41.21-0.85 40-2.03 38.79-3.2 38.07-4.76 37.35-6.32 37.35-8.11L37.35-8.11 37.35-9.5 40.5-10.01 40.5-8.11Q40.5-6.93 40.97-5.92 41.45-4.91 42.26-4.14 43.06-3.37 44.12-2.93 45.19-2.49 46.36-2.49L46.36-2.49 48.55-2.49Q49.73-2.49 50.78-2.93 51.83-3.37 52.63-4.14 53.44-4.91 53.91-5.92 54.39-6.93 54.39-8.11L54.39-8.11 54.39-9.16Q54.39-10.96 53.68-12.16 52.97-13.35 51.8-14.2 50.63-15.04 49.15-15.63 47.68-16.21 46.11-16.8 44.55-17.38 43.07-18.09 41.6-18.8 40.42-19.86 39.25-20.92 38.54-22.46 37.84-24 37.84-26.25L37.84-26.25 37.84-26.9Q37.84-28.69 38.51-30.25 39.18-31.81 40.35-32.98 41.52-34.16 43.1-34.83 44.67-35.5 46.45-35.5L46.45-35.5 48.7-35.5Q50.48-35.5 52.05-34.83 53.61-34.16 54.78-32.98 55.95-31.81 56.62-30.25 57.29-28.69 57.29-26.9L57.29-26.9 57.29-26 54.15-25.49 54.15-26.9Q54.15-28.08 53.71-29.09 53.27-30.1 52.51-30.86 51.75-31.62 50.74-32.06 49.73-32.5 48.55-32.5L48.55-32.5 46.6-32.5Q45.43-32.5 44.42-32.06 43.4-31.62 42.63-30.86 41.87-30.1 41.43-29.09 40.99-28.08 40.99-26.9L40.99-26.9 40.99-26.25Q40.99-24.56 41.69-23.41 42.4-22.27 43.57-21.45 44.75-20.63 46.22-20.03 47.7-19.43 49.26-18.81 50.83-18.19 52.3-17.44 53.78-16.7 54.95-15.61 56.12-14.53 56.83-12.96 57.54-11.4 57.54-9.16L57.54-9.16Z" opacity="1" transform="matrix(1,0,0,1,0,0)" fill="#ffffff" class="wordmark-text-0" data-fill-palette-color="primary" id="text-0"></path></svg></g></svg></g></svg></g></svg></g><g><svg viewBox="0 0 268.85687671099055 267.4198367027251" height="267.4198367027251" width="268.85687671099055"><g><svg xmlns="http://www.w3.org/2000/svg" xmlns:xlink="http://www.w3.org/1999/xlink" version="1.1" x="8" y="0" viewBox="7.4999999999999964 4.998777176176591 85.1 90.00122282382341" enable-background="new 0 0 100 100" xml:space="preserve" height="267.4198367027251" width="252.85687671099055" class="icon-icon-0" data-fill-palette-color="accent" id="icon-0"><g fill="#ffffff" data-fill-palette-color="accent"><path d="M48.1 52.1c17.4 0 37.5-4 39.3-7.6S65 36.1 65 36.1c-5.8 2.7-17 2.7-17 2.7s-11.2 0-17-2.7c0 0-24.1 4.9-22.3 8.5C10.6 48.1 30.2 52.1 48.1 52.1z" fill="#ffffff" data-fill-palette-color="accent"></path><path d="M63.1 29.2c0 0-3.4-19.4-5.9-23.2-2.5-3.8-6.3 4.5-10.2 4.5-3.9 0-4.8-5.3-8.3-5.5-3.6-0.2-7.1 24.2-7.1 24.2S50 33.4 63.1 29.2z" fill="#ffffff" data-fill-palette-color="accent"></path><path d="M31.5 53.3c0 0-1.6 7.4 8 7.6 0 0 3.7 0 5.6-3.3 0.6-1 1.5-1.6 2.7-1.6h0.4c1.1 0 2.1 0.6 2.7 1.6 1.9 3.3 5.6 3.3 5.6 3.3 9.6-0.2 8-7.6 8-7.6-4.4 1.5-11.3 1.4-13.7 1.3h0c-0.6 0-0.9 0-0.9 0 0 0 0 0 0 0l-3.8 0C46.2 54.5 36.9 55 31.5 53.3z" fill="#ffffff" data-fill-palette-color="accent"></path><path d="M27.7 53.3l-7.4-1.1-12.8 11c0.3 0 0.8 0 1.2 0 5.7 0 20.8 4.8 20.8 4.8l-8 6.9c6 1.2 24.9 11.3 24.9 11.3l1.8-6.6C33.1 68.5 27.7 53.3 27.7 53.3z" fill="#ffffff" data-fill-palette-color="accent"></path><path d="M92.6 62.9L77.1 52.1l-8.3 1.1c0.5 2.7-1.2 7.6-1.2 7.6C43.7 78.9 47.6 95 47.6 95 57.1 76.2 78 73.6 78 73.6l-9.5-4.5C74.7 65.2 92.6 62.9 92.6 62.9z" fill="#ffffff" data-fill-palette-color="accent"></path></g></svg></g></svg></g></svg></g><defs></defs></svg><rect width="395.52" height="132.2459785508784" fill="none" stroke="none" visibility="hidden"></rect></g></svg></g></svg>